<svg width="30" height="30" viewBox="0 0 30 30" fill="none" xmlns="http://www.w3.org/2000/svg">
  <rect width="30" height="30" fill="#171515"/>
  <path fill-rule="evenodd" clip-rule="evenodd" d="M15.0083 5C9.47396 5 5 9.58331 5 15.2535C5 19.786 7.86662 23.6226 11.8434 24.9805C12.3406 25.0826 12.5227 24.7599 12.5227 24.4885C12.5227 24.2508 12.5063 23.436 12.5063 22.587C9.72225 23.1983 9.14249 21.3647 9.14249 21.3647C8.69508 20.1764 8.03215 19.871 8.03215 19.871C7.12092 19.2429 8.09852 19.2429 8.09852 19.2429C9.1093 19.3108 9.63969 20.2954 9.63969 20.2954C10.5343 21.857 11.9759 21.4158 12.5559 21.1441C12.6386 20.482 12.9039 20.0237 13.1856 19.7691C10.9651 19.5314 8.62891 18.6487 8.62891 14.7102C8.62891 13.5898 9.02634 12.6731 9.65608 11.9602C9.55672 11.7056 9.20866 10.6529 9.75564 9.24394C9.75564 9.24394 10.6007 8.97228 12.5061 10.2964C13.3219 10.072 14.1632 9.95782 15.0083 9.95685C15.8533 9.95685 16.7148 10.0758 17.5102 10.2964C19.4159 8.97228 20.2609 9.24394 20.2609 9.24394C20.8079 10.6529 20.4596 11.7056 20.3603 11.9602C21.0066 12.6731 21.3876 13.5898 21.3876 14.7102C21.3876 18.6487 19.0514 19.5143 16.8143 19.7691C17.179 20.0916 17.4936 20.7026 17.4936 21.6703C17.4936 23.0453 17.4773 24.1489 17.4773 24.4883C17.4773 24.7599 17.6596 25.0826 18.1566 24.9808C22.1333 23.6224 25 19.786 25 15.2535C25.0163 9.58331 20.526 5 15.0083 5Z" fill="white"/>
</svg>